<mxfile host="app.diagrams.net" modified="2023-08-17T02:36:03.811Z" agent="Mozilla/5.0 (Windows NT 10.0; Win64; x64) AppleWebKit/537.36 (KHTML, like Gecko) Chrome/115.0.0.0 Safari/537.36 Edg/115.0.1901.203" version="21.6.6" etag="fcBCmpZXi0TGfaGhT7Px" type="github">
  <diagram name="第 1 页" id="cYWB4rdCesI77Uw8meG-">
    <mxGraphModel>
      <root>
        <mxCell id="0" />
        <mxCell id="1" parent="0" />
      </root>
    </mxGraphModel>
  </diagram>
</mxfile>
